# Blender v2.80 (sub 75) OBJ File: 'cup_of_tea.blend'
# www.blender.org
v -3.675481 -0.163280 3.686702
v 3.625915 -0.163280 3.686702
v -3.675481 -0.163280 -3.614694
v 3.625915 -0.163280 -3.614694
v -3.712203 -0.199243 3.723424
v 3.662637 -0.199243 3.723424
v -3.712203 -0.199243 -3.651416
v 3.662637 -0.199243 -3.651416
v -3.743959 -0.264176 3.755180
v 3.694393 -0.264176 3.755180
v -3.743959 -0.264176 -3.683172
v 3.694393 -0.264176 -3.683172
v -3.710762 -0.389048 3.721982
v 3.661195 -0.389048 3.721982
v -3.710762 -0.389048 -3.649974
v 3.661195 -0.389048 -3.649974
v -1.873623 -0.603827 1.884844
v 1.824057 -0.603827 1.884844
v -1.873623 -0.603827 -1.812836
v 1.824057 -0.603827 -1.812836
v -0.388358 -1.453038 0.399579
v 0.338792 -1.453038 0.399579
v -0.388358 -1.453038 -0.327571
v 0.338792 -1.453038 -0.327571
v -0.388358 -4.905827 0.399579
v 0.338792 -4.905827 0.399579
v -0.388358 -4.905827 -0.327571
v 0.338792 -4.905827 -0.327571
v -1.251127 -9.662580 1.262348
v 1.201561 -9.662580 1.262348
v -1.251127 -9.662580 -1.190340
v 1.201561 -9.662580 -1.190340
vt 1.000000 0.000000
vt 0.000000 1.000000
vt 0.000000 0.000000
vt 1.000000 0.000000
vt 0.000000 1.000000
vt 0.000000 0.000000
vt 1.000000 0.000000
vt 0.000000 1.000000
vt 1.000000 0.000000
vt 0.000000 1.000000
vt 0.000000 0.000000
vt 1.000000 0.000000
vt 0.000000 1.000000
vt 0.000000 0.000000
vt 0.000000 1.000000
vt 0.000000 0.000000
vt 1.000000 0.000000
vt 0.000000 1.000000
vt 0.000000 0.000000
vt 1.000000 0.000000
vt 0.000000 1.000000
vt 0.000000 0.000000
vt 1.000000 0.000000
vt 0.000000 1.000000
vt 0.000000 0.000000
vt 1.000000 0.000000
vt 0.000000 1.000000
vt 0.000000 0.000000
vt 1.000000 0.000000
vt 0.000000 1.000000
vt 0.000000 0.000000
vt 1.000000 0.000000
vt 0.000000 1.000000
vt 0.000000 0.000000
vt 1.000000 0.000000
vt 0.000000 1.000000
vt 0.000000 0.000000
vt 1.000000 0.000000
vt 0.000000 1.000000
vt 0.000000 0.000000
vt 1.000000 0.000000
vt 0.000000 1.000000
vt 0.000000 0.000000
vt 1.000000 0.000000
vt 0.000000 1.000000
vt 0.000000 0.000000
vt 1.000000 0.000000
vt 0.000000 1.000000
vt 0.000000 0.000000
vt 1.000000 0.000000
vt 0.000000 1.000000
vt 0.000000 0.000000
vt 1.000000 0.000000
vt 0.000000 1.000000
vt 0.000000 0.000000
vt 1.000000 0.000000
vt 0.000000 1.000000
vt 0.000000 0.000000
vt 1.000000 0.000000
vt 0.000000 1.000000
vt 0.000000 0.000000
vt 0.000000 0.000000
vt 1.000000 1.000000
vt 0.000000 1.000000
vt 1.000000 0.000000
vt 0.000000 1.000000
vt 0.000000 0.000000
vt 1.000000 0.000000
vt 0.000000 1.000000
vt 0.000000 0.000000
vt 1.000000 0.000000
vt 0.000000 1.000000
vt 0.000000 0.000000
vt 1.000000 0.000000
vt 0.000000 1.000000
vt 0.000000 0.000000
vt 1.000000 0.000000
vt 0.000000 1.000000
vt 0.000000 0.000000
vt 1.000000 0.000000
vt 0.000000 1.000000
vt 0.000000 0.000000
vt 0.000000 0.000000
vt 1.000000 1.000000
vt 1.000000 0.000000
vt 0.000000 1.000000
vt 0.000000 0.000000
vt 1.000000 1.000000
vt 1.000000 1.000000
vt 1.000000 1.000000
vt 1.000000 1.000000
vt 1.000000 1.000000
vt 1.000000 1.000000
vt 1.000000 1.000000
vt 1.000000 1.000000
vt 1.000000 1.000000
vt 1.000000 1.000000
vt 1.000000 1.000000
vt 1.000000 1.000000
vt 1.000000 1.000000
vt 1.000000 1.000000
vt 1.000000 1.000000
vt 1.000000 1.000000
vt 1.000000 1.000000
vt 1.000000 1.000000
vt 1.000000 1.000000
vt 1.000000 1.000000
vt 1.000000 1.000000
vt 1.000000 0.000000
vt 1.000000 1.000000
vt 1.000000 1.000000
vt 1.000000 1.000000
vt 1.000000 1.000000
vt 1.000000 1.000000
vt 1.000000 0.000000
vt 1.000000 1.000000
vn 0.2961 -0.9081 0.2961
vn -0.2961 -0.9081 -0.2961
vn 0.2961 -0.9081 -0.2961
vn -0.5266 -0.6673 0.5266
vn -0.7033 -0.1029 -0.7033
vn -0.5266 -0.6673 -0.5266
vn 0.5266 -0.6673 -0.5266
vn -0.2961 -0.9081 0.2961
vn 0.5266 -0.6673 0.5266
vn 0.7033 -0.1029 -0.7033
vn 0.5112 0.6908 0.5112
vn 0.7033 -0.1029 0.7033
vn -0.7033 -0.1029 0.7033
vn -0.1119 0.9874 0.1119
vn -0.5112 0.6908 0.5112
vn 0.5112 0.6908 -0.5112
vn -0.5112 0.6908 -0.5112
vn -0.4907 0.7199 -0.4907
vn -0.1119 0.9874 -0.1119
vn 0.1119 0.9874 -0.1119
vn 0.1119 0.9874 0.1119
vn 0.4907 0.7199 0.4907
vn -0.7008 -0.1328 0.7008
vn -0.4907 0.7199 0.4907
vn 0.4907 0.7199 -0.4907
vn -0.7008 -0.1328 -0.7008
vn 0.6187 0.4840 -0.6187
vn 0.7008 -0.1328 -0.7008
vn 0.7008 -0.1328 0.7008
vn -0.6187 0.4840 -0.6187
vn 0.6187 0.4840 0.6187
vn -0.6187 0.4840 0.6187
s 1
f 3/1/1 2/2/2 1/3/3
f 8/4/4 10/5/5 6/6/6
f 2/7/2 5/8/7 1/3/3
f 4/9/8 6/10/6 2/11/2
f 1/12/3 7/13/9 3/14/1
f 3/1/1 8/15/4 4/16/8
f 9/17/10 15/18/11 11/19/12
f 5/20/7 11/21/12 7/22/9
f 7/23/9 12/24/13 8/25/4
f 6/26/6 9/27/10 5/28/7
f 15/29/11 20/30/14 16/31/15
f 11/32/12 16/33/15 12/34/13
f 10/35/5 13/36/16 9/37/10
f 12/38/13 14/39/17 10/40/5
f 20/41/14 22/42/18 18/43/19
f 14/44/17 17/45/20 13/46/16
f 16/47/15 18/48/19 14/49/17
f 13/50/16 19/51/21 15/52/11
f 23/53/22 28/54/23 24/55/24
f 17/56/20 23/57/22 19/58/21
f 19/59/21 24/60/24 20/61/14
f 17/62/20 22/63/18 21/64/25
f 26/65/26 29/66/27 25/67/28
f 22/68/18 25/69/28 21/70/25
f 24/71/24 26/72/26 22/73/18
f 21/74/25 27/75/29 23/76/22
f 30/77/30 31/78/31 29/79/27
f 28/80/23 30/81/30 26/82/26
f 27/83/29 29/84/27 31/78/31
f 27/85/29 32/86/32 28/87/23
f 3/1/1 4/88/8 2/2/2
f 8/4/4 12/89/13 10/5/5
f 2/7/2 6/90/6 5/8/7
f 4/9/8 8/91/4 6/10/6
f 1/12/3 5/92/7 7/13/9
f 3/1/1 7/93/9 8/15/4
f 9/17/10 13/94/16 15/18/11
f 5/20/7 9/95/10 11/21/12
f 7/23/9 11/96/12 12/24/13
f 6/26/6 10/97/5 9/27/10
f 15/29/11 19/98/21 20/30/14
f 11/32/12 15/99/11 16/33/15
f 10/35/5 14/100/17 13/36/16
f 12/38/13 16/101/15 14/39/17
f 20/41/14 24/102/24 22/42/18
f 14/44/17 18/103/19 17/45/20
f 16/47/15 20/104/14 18/48/19
f 13/50/16 17/105/20 19/51/21
f 23/53/22 27/106/29 28/54/23
f 17/56/20 21/107/25 23/57/22
f 19/59/21 23/108/22 24/60/24
f 17/62/20 18/109/19 22/63/18
f 26/65/26 30/110/30 29/66/27
f 22/68/18 26/111/26 25/69/28
f 24/71/24 28/112/23 26/72/26
f 21/74/25 25/113/28 27/75/29
f 30/77/30 32/114/32 31/78/31
f 28/80/23 32/114/32 30/81/30
f 27/83/29 25/115/28 29/84/27
f 27/85/29 31/116/31 32/86/32
